<?xml version="1.0" encoding="UTF-8"?>
<svg id="Layer_2" data-name="Layer 2" xmlns="http://www.w3.org/2000/svg" viewBox="0 0 35.38 35.38">
  <g id="ELEMENTS">
    <g>
      <path fill="#000" d="m27.06,6.32c-1.15,0-2.07.93-2.07,2.07s.93,2.07,2.07,2.07,2.07-.93,2.07-2.07-.93-2.07-2.07-2.07Z"/>
      <path fill="#000" d="m17.84,8.98c-4.8,0-8.71,3.91-8.71,8.71s3.91,8.71,8.71,8.71,8.71-3.91,8.71-8.71-3.91-8.71-8.71-8.71Zm0,14.29c-3.08,0-5.58-2.5-5.58-5.58s2.5-5.58,5.58-5.58,5.58,2.5,5.58,5.58-2.5,5.58-5.58,5.58Z"/>
      <path fill="#000" d="m24.75,35.38h-14.13c-5.86,0-10.63-4.77-10.63-10.63v-14.13C0,4.77,4.77,0,10.63,0h14.13c5.86,0,10.63,4.77,10.63,10.63v14.13c0,5.86-4.77,10.63-10.63,10.63ZM10.63,3.33c-4.02,0-7.3,3.27-7.3,7.3v14.13c0,4.02,3.27,7.3,7.3,7.3h14.13c4.02,0,7.3-3.27,7.3-7.3v-14.13c0-4.02-3.27-7.3-7.3-7.3h-14.13Z"/>
    </g>
  </g>
</svg>