<?xml version="1.0" standalone="no"?>
<!DOCTYPE svg PUBLIC "-//W3C//DTD SVG 20010904//EN"
 "http://www.w3.org/TR/2001/REC-SVG-20010904/DTD/svg10.dtd">
<svg version="1.0" xmlns="http://www.w3.org/2000/svg"
 width="413.000000pt" height="413.000000pt" viewBox="0 0 413.000000 413.000000"
 preserveAspectRatio="xMidYMid meet">
<metadata>
Created by potrace 1.16, written by Peter Selinger 2001-2019
</metadata>
<g transform="translate(0.000000,413.000000) scale(0.100000,-0.100000)"
fill="#80AD3E" stroke="none">
<path d="M680 4111 c-86 -33 -106 -51 -351 -298 -216 -219 -249 -255 -273
-311 -30 -69 -56 -204 -56 -293 0 -64 26 -260 40 -304 5 -16 17 -56 25 -88 40
-153 174 -454 280 -629 30 -49 55 -91 55 -93 0 -8 178 -271 212 -313 18 -23
51 -65 73 -94 214 -284 597 -674 926 -944 219 -178 506 -371 729 -487 407
-212 768 -297 1031 -242 147 31 180 54 440 314 154 154 245 253 263 286 43 78
61 184 47 273 -20 130 -32 146 -395 508 -202 203 -347 339 -371 351 -105 53
-261 57 -357 10 -94 -46 -132 -87 -190 -204 -76 -156 -132 -211 -258 -252
-115 -38 -220 -22 -378 58 -397 200 -756 592 -877 960 -51 156 -22 277 94 391
36 34 81 66 121 84 36 16 75 34 88 39 75 35 146 127 173 224 32 113 20 213
-37 311 -35 62 -610 640 -688 693 -33 22 -72 42 -86 45 -14 3 -35 10 -48 15
-38 15 -182 9 -232 -10z"/>
</g>
</svg>
