<?xml version="1.0" encoding="UTF-8"?>
<svg id="Layer_2" data-name="Layer 2" xmlns="http://www.w3.org/2000/svg" viewBox="0 0 27.4 35.38">
  <defs>
    <style>
      .cls-1 {
        fill-rule: evenodd;
      }
    </style>
  </defs>
  <g id="ELEMENTS">
    <path class="cls-1" d="m11.46,23.08c-.03.1-.06.19-.08.27-1.3,5.09-1.44,6.22-2.78,8.59-.64,1.12-1.35,2.19-2.15,3.21-.09.12-.17.26-.35.23-.2-.04-.21-.22-.23-.37-.21-1.55-.33-3.1-.28-4.66.07-2.03.32-2.73,2.94-13.76.04-.17,0-.31-.06-.46-.63-1.69-.75-3.41-.2-5.16,1.19-3.76,5.45-4.05,6.2-.95.46,1.92-.76,4.43-1.69,8.15-.77,3.06,2.83,5.24,5.92,3.01,2.84-2.06,3.95-7.01,3.74-10.51-.41-6.99-8.07-8.5-12.93-6.25-5.57,2.58-6.84,9.48-4.32,12.64.32.4.56.65.46,1.05-.16.63-.3,1.27-.48,1.9-.13.47-.52.64-.99.45-.93-.37-1.7-.97-2.33-1.74-2.14-2.65-2.75-7.88.08-12.31C5.03,1.49,10.86-.5,16.17.1c6.35.72,10.36,5.06,11.11,9.98.34,2.24.1,7.77-3.05,11.68-3.62,4.49-9.49,4.79-12.19,2.03-.21-.21-.38-.46-.58-.71Z"/>
  </g>
</svg>