<?xml version="1.0" encoding="UTF-8"?>
<svg id="Layer_2" data-name="Layer 2" xmlns="http://www.w3.org/2000/svg" viewBox="0 0 42.99 35.38">
  <g id="ELEMENTS">
    <path d="m42.81,4.24c-1.36.62-2.87.99-4.35,1.24.7-.12,1.73-1.38,2.14-1.9.63-.78,1.15-1.67,1.44-2.63.04-.07.07-.17,0-.23-.09-.04-.16-.02-.23.02-1.64.88-3.34,1.52-5.15,1.97-.15.04-.26,0-.36-.09-.15-.17-.29-.33-.45-.46-.76-.65-1.58-1.15-2.5-1.53-1.21-.49-2.53-.7-3.83-.62-1.27.08-2.51.44-3.63,1.03-1.13.59-2.13,1.41-2.93,2.39-.83,1.02-1.44,2.23-1.75,3.51-.3,1.23-.28,2.45-.09,3.7.03.21,0,.23-.18.21C13.85,9.8,7.99,7.27,3.22,1.84c-.21-.24-.32-.24-.49.02-2.08,3.12-1.07,8.14,1.53,10.61.35.33.7.66,1.09.96-.14.03-1.87-.16-3.42-.96-.21-.13-.31-.06-.33.18-.02.34,0,.65.06,1.01.4,3.17,2.59,6.1,5.6,7.24.36.15.75.28,1.14.35-.68.15-1.39.26-3.35.1-.24-.05-.34.08-.24.31,1.47,4.02,4.66,5.22,7.04,5.9.32.06.64.06.96.13-.02.03-.04.03-.06.06-.79,1.21-3.53,2.1-4.81,2.55-2.32.81-4.85,1.18-7.3.94-.39-.06-.48-.05-.58,0-.11.07-.01.16.11.26.5.33,1,.62,1.52.9,1.56.83,3.18,1.48,4.88,1.95,8.78,2.42,18.66.64,25.25-5.9,5.17-5.14,6.99-12.23,6.99-19.33,0-.28.33-.43.52-.58,1.35-1.01,2.43-2.22,3.44-3.57.23-.3.23-.57.23-.68v-.04c0-.11,0-.08-.18,0Z"/>
  </g>
</svg>