<?xml version="1.0" standalone="no"?>
<!DOCTYPE svg PUBLIC "-//W3C//DTD SVG 20010904//EN"
 "http://www.w3.org/TR/2001/REC-SVG-20010904/DTD/svg10.dtd">
<svg version="1.0" xmlns="http://www.w3.org/2000/svg"
 width="512.000000pt" height="512.000000pt" viewBox="0 0 512.000000 512.000000"
 preserveAspectRatio="xMidYMid meet">
<metadata>
Created by potrace 1.16, written by Peter Selinger 2001-2019
</metadata>
<g transform="translate(0.000000,512.000000) scale(0.100000,-0.100000)"
fill="#000000" stroke="none">
<path d="M2360 4945 c-355 -79 -629 -336 -731 -686 -16 -55 -22 -112 -26 -221
l-5 -148 -172 0 c-209 0 -279 -11 -375 -55 -131 -62 -232 -192 -260 -335 -6
-30 -40 -696 -77 -1479 -63 -1354 -65 -1427 -50 -1488 43 -174 160 -303 323
-353 64 -20 91 -20 1573 -20 1482 0 1509 0 1573 20 121 37 232 132 286 243 12
24 28 72 37 109 16 63 14 123 -50 1489 -37 783 -71 1449 -77 1479 -32 166
-154 303 -320 361 -56 20 -89 23 -275 27 l-212 4 -5 147 c-3 108 -10 165 -26
220 -96 328 -343 576 -672 672 -97 28 -359 36 -459 14z m295 -320 c212 -23
419 -192 500 -408 23 -63 44 -198 45 -289 l0 -38 -640 0 -640 0 0 38 c1 91 22
226 45 289 67 176 203 312 379 378 66 25 185 45 236 39 14 -2 48 -6 75 -9z
m1264 -1080 c40 -20 79 -70 86 -108 3 -18 35 -659 70 -1426 l65 -1394 -20 -43
c-13 -26 -36 -53 -58 -66 l-37 -23 -1465 0 -1465 0 -37 23 c-22 13 -45 40 -58
66 l-21 43 66 1404 c61 1300 68 1407 86 1446 21 44 56 72 104 84 16 4 621 7
1343 8 1135 1 1317 -1 1341 -14z"/>
<path d="M1700 3208 c-62 -31 -94 -92 -86 -163 11 -95 78 -260 149 -365 45
-66 163 -186 232 -235 110 -78 248 -137 390 -166 83 -17 294 -14 380 5 362 80
640 341 736 691 32 119 8 194 -75 234 -54 26 -98 27 -152 1 -53 -26 -71 -53
-96 -143 -57 -207 -218 -380 -418 -448 -89 -30 -240 -37 -335 -15 -121 29
-209 79 -305 176 -92 92 -131 158 -169 287 -12 40 -34 86 -48 104 -52 61 -128
75 -203 37z"/>
</g>
</svg>
