<?xml version="1.0" encoding="UTF-8"?>
<svg id="Layer_1" data-name="Layer 1" xmlns="http://www.w3.org/2000/svg" viewBox="0 0 380.16 380.5">
  <defs>
    <style>
      .cls-1 {
        fill: #fff;
      }

      .cls-2 {
        fill: #262326;
      }

      .cls-3 {
        fill: #a0cc3a;
      }

      .cls-4 {
        fill: #7cab41;
      }
    </style>
  </defs>
  <path class="cls-4" d="m145.36,11.39c-7.37-5.89-7.63,45.95-5.74,66.55,1.4,15.23,32.7,46.91,45.98,57.1,13.29,10.19,37.19-7.02,37.19-7.02,0,0,11.47-44.93,0-74.57-11.47-29.64-77.44-42.06-77.44-42.06Z"/>
  <path class="cls-3" d="m285.89,0s38.24,72.58,0,125.16c-38.24,52.58-80.04,11.39-80.04,11.39l16.94-83.09S248.61,18.25,285.89,0Z"/>
  <path class="cls-1" d="m205.86,136.54c4.11-30.8-5.71-61.59-26.65-84.49-2.91-3.25-6.02-6.33-9.39-9.11,20.71,16.2,34.44,41.23,37.03,67.4.81,8.69.44,17.6-.99,26.2h0Z"/>
  <path class="cls-1" d="m278.25,42.94c-6.73,34.98-29.58,68.34-54.69,92.97-1.83,1.74-6.37,5.98-8.24,7.74,3.51-3.6,7.14-7.07,10.59-10.72,17.14-18.21,32.1-38.82,42.53-61.61,4.14-9.06,7.76-18.62,9.82-28.38h0Z"/>
  <path class="cls-2" d="m190.08,135.11c-62.3,0-112.81,54.79-112.81,122.37s50.51,122.37,112.81,122.37,112.81-54.79,112.81-122.37-50.51-122.37-112.81-122.37Zm.55,197.9c-33.53,0-60.71-33.39-60.71-74.57s27.18-74.57,60.71-74.57,60.72,33.39,60.72,74.57-27.18,74.57-60.72,74.57Z"/>
</svg>